<svg width="205" height="205" viewBox="0 0 205 205" fill="none" xmlns="http://www.w3.org/2000/svg">
<g filter="url(#filter0_d_9_426)">
<rect x="17" y="17" width="171" height="171" rx="20" fill="#3077C5"/>
</g>
<path d="M136.04 153.784H129.64V150.232H147.4V153.784H141.032V171H136.04V153.784ZM156.991 171.32C155.007 171.32 152.554 171.128 149.631 170.744V166.936C153.258 167.491 155.733 167.768 157.055 167.768C159.829 167.768 161.215 167.053 161.215 165.624V164.28C161.215 163.597 161.013 163.075 160.607 162.712C160.223 162.349 159.519 162.168 158.495 162.168H156.063C151.498 162.168 149.215 160.355 149.215 156.728V155.192C149.215 153.379 149.973 152.045 151.487 151.192C153.002 150.339 155.402 149.912 158.687 149.912C160.394 149.912 162.559 150.051 165.183 150.328V154.04C161.962 153.656 159.743 153.464 158.527 153.464C156.842 153.464 155.711 153.603 155.135 153.88C154.517 154.179 154.207 154.648 154.207 155.288V156.76C154.207 157.848 155.125 158.392 156.959 158.392H159.455C161.823 158.392 163.541 158.829 164.607 159.704C165.674 160.579 166.207 161.912 166.207 163.704V165.08C166.207 167.555 165.322 169.229 163.551 170.104C162.698 170.552 161.749 170.861 160.703 171.032C159.679 171.224 158.442 171.32 156.991 171.32Z" fill="white"/>
<defs>
<filter id="filter0_d_9_426" x="0" y="0" width="205" height="205" filterUnits="userSpaceOnUse" color-interpolation-filters="sRGB">
<feFlood flood-opacity="0" result="BackgroundImageFix"/>
<feColorMatrix in="SourceAlpha" type="matrix" values="0 0 0 0 0 0 0 0 0 0 0 0 0 0 0 0 0 0 127 0" result="hardAlpha"/>
<feMorphology radius="7" operator="dilate" in="SourceAlpha" result="effect1_dropShadow_9_426"/>
<feOffset/>
<feGaussianBlur stdDeviation="5"/>
<feComposite in2="hardAlpha" operator="out"/>
<feColorMatrix type="matrix" values="0 0 0 0 1 0 0 0 0 1 0 0 0 0 1 0 0 0 0.9 0"/>
<feBlend mode="normal" in2="BackgroundImageFix" result="effect1_dropShadow_9_426"/>
<feBlend mode="normal" in="SourceGraphic" in2="effect1_dropShadow_9_426" result="shape"/>
</filter>
</defs>
</svg>
