<svg width="25" height="25" viewBox="0 0 25 25" fill="none" xmlns="http://www.w3.org/2000/svg">
<path d="M6.088 7.456H8.424V9.344H6.088V7.456ZM6.088 10.256H8.424V18H6.088V10.256ZM10.5396 10.256H12.8436V11.2C13.025 10.464 13.8516 10.096 15.3236 10.096C16.3156 10.096 17.009 10.2773 17.4036 10.64C17.809 10.992 18.0116 11.552 18.0116 12.32V18H15.6756V12.624C15.6756 12.3253 15.6436 12.1013 15.5796 11.952C15.5263 11.8027 15.409 11.696 15.2276 11.632C15.057 11.568 14.7903 11.536 14.4276 11.536C13.969 11.536 13.633 11.568 13.4196 11.632C13.2063 11.6853 13.0623 11.7867 12.9876 11.936C12.913 12.0853 12.8756 12.3147 12.8756 12.624V18H10.5396V10.256Z" fill="#00D1FF"/>
<circle cx="12.5" cy="12.5" r="11.5" stroke="#00D1FF" stroke-width="2"/>
</svg>
